<?xml version="1.0" encoding="UTF-8"?>
<svg width="137px" height="34px" viewBox="0 0 137 34" version="1.1" xmlns="http://www.w3.org/2000/svg" xmlns:xlink="http://www.w3.org/1999/xlink">
    <!-- Generator: Sketch 60 (88103) - https://sketch.com -->
    <title>linkedin-logo@logotyp.us</title>
    <desc>Created with Sketch.</desc>
    <g id="Symbols" stroke="none" stroke-width="1" fill="none" fill-rule="evenodd">
        <g id="footer" transform="translate(-686.000000, -94.000000)">
            <g>
                <g id="linkedin-logo@logotyp.us" transform="translate(686.000000, 94.000000)">
                    <path d="M104.882476,34 L134.117524,34 C135.708875,34 137,32.7461416 137,31.19988 L137,2.80012 C137,1.25423616 135.709263,0 134.117524,0 L104.882476,0 C103.291125,0 102,1.25385838 102,2.80012 L102,31.19988 C102,32.7457638 103.290737,34 104.882476,34" id="Path" fill="#CAC3AA"></path>
                    <path d="M115.706741,12.7068753 L120.543863,12.7068753 L120.543863,15.1416305 C121.192454,13.8413504 123.081293,12.4522051 125.579485,12.4522051 C130.367366,12.4522051 132,14.6161327 132,19.7557012 L132,29 L126.908597,29 L126.908597,20.837088 C126.908597,18.1322746 126.38003,16.6527252 124.405789,16.6527252 C121.736794,16.6527252 120.798914,18.681239 120.798914,20.837088 L120.798914,29 L115.707511,29 L115.707511,12.7068753 L115.706741,12.7068753 Z M107.560497,29 L112.6519,29 L112.6519,12.7068753 L107.560497,12.7068753 L107.560497,29 Z M113.212012,7.10605361 C113.212012,8.82103838 111.820964,10.2121072 110.106006,10.2121072 C108.391047,10.2121072 107,8.82103838 107,7.10605361 C107,5.39029945 108.391047,4 110.106006,4 C111.820964,4 113.212012,5.38991475 113.212012,7.10605361 Z" id="Shape" fill="#F6F3E9"></path>
                    <g id="Group" transform="translate(0.000000, 5.000000)" fill="#CAC3AA">
                        <path d="M96.7877412,24.525 L92.4276863,24.525 L92.4276863,22.6923077 L92.3573137,22.6923077 C91.8167765,23.5384615 89.9730157,24.7792308 87.7256588,24.7792308 C82.2297529,24.7792308 79.6704745,21.2923077 79.6704745,16.38 C79.6704745,11.5011538 82.3640314,7.98076923 87.2224,7.98076923 C89.580451,7.98076923 90.9357882,8.87153846 91.7536314,10.0676923 L91.7536314,0.0903846154 L96.7881216,0.0903846154 L96.7881216,24.5246154 L96.7877412,24.525 Z M88.1775647,11.9003846 C85.8685843,11.9003846 84.5033569,13.8234615 84.5033569,16.5061538 C84.5033569,19.1930769 85.8685843,20.8596154 88.1775647,20.8596154 C90.5257255,20.8596154 91.9544784,19.1930769 91.9544784,16.5061538 C91.9544784,13.8234615 90.4945333,11.9003846 88.1775647,11.9003846 Z M77.0883725,21.8207692 C75.8003647,23.475 73.2760824,24.7792308 69.6007333,24.7792308 C64.6096078,24.7792308 61.4196392,21.3715385 61.4196392,16.1253846 C61.4196392,11.6773077 64.535051,7.98076923 69.9602039,7.98076923 C74.5587647,7.98076923 77.7818275,11.2469231 77.7818275,16.4646154 C77.7818275,17.4826923 77.5391373,18.4061538 77.5391373,18.4061538 L66.0299922,18.4061538 L66.0703137,18.6423077 C66.4541294,19.9119231 67.6964902,21.2161538 69.7989176,21.2161538 C71.6628392,21.2161538 73.3160235,20.2611538 74.012902,19.3988462 L77.0879922,21.8207692 L77.0883725,21.8207692 Z M73.342651,14.5961538 C73.1562588,12.9184615 71.6894667,11.5438462 69.8597804,11.5438462 C67.6215529,11.5438462 66.143349,13.005 66.0071686,14.5961538 L73.342651,14.5961538 Z M45.4348,0.0903846154 L50.4692902,0.0903846154 L50.4692902,14.8853846 L56.0648588,8.235 L62.1606431,8.235 L55.1154,16.0061538 L62.2755216,24.5246154 L56.4425882,24.5246154 L50.4696706,17 L50.4696706,24.5246154 L45.4351804,24.5246154 L45.4351804,0.0903846154 L45.4348,0.0903846154 Z M26.3033569,8.23538462 L30.6634118,8.23538462 L30.6634118,10.5180769 L30.7337843,10.5180769 C31.4124039,9.21384615 33.4897255,7.98115385 35.9698824,7.98115385 C41.1344667,7.98115385 42.4141059,10.9396154 42.4141059,15.405 L42.4141059,24.525 L37.3796157,24.525 L37.3796157,16.4911538 C37.3796157,14.5680769 37.2788118,12.0726923 34.6639961,12.0726923 C32.0149451,12.0726923 31.3382275,14.3269231 31.3382275,16.4911538 L31.3382275,24.525 L26.3037373,24.525 L26.3037373,8.23538462 L26.3033569,8.23538462 Z M20.7652275,0.217692308 C22.2947843,0.217692308 23.6600118,1.59923077 23.6600118,3.14461538 C23.6600118,4.69 22.2947843,6.07153846 20.7652275,6.07153846 C19.2368118,6.07153846 17.8704431,4.69 17.8704431,3.14461538 C17.8704431,1.59923077 19.2368118,0.217692308 20.7652275,0.217692308 Z M18.2477922,24.525 L23.2822824,24.525 L23.2822824,8.23538462 L18.2477922,8.23538462 L18.2477922,24.525 Z M0.123247059,0.0903846154 L5.15773725,0.0903846154 L5.15773725,19.4342308 L15.227098,19.4342308 L15.227098,24.5246154 L0.123247059,24.5246154 L0.123247059,0.0903846154 Z" id="Shape"></path>
                    </g>
                </g>
            </g>
        </g>
    </g>
</svg>
